PathFileType	4	(X/Y/Z)	/Users/itak/Documents/Research/Walk-IL/dataset/trc/00483_00167.trc
DataRate	CameraRate	NumFrames	NumMarkers	Units	OrigDataRate	OrigDataStartFrame	OrigNumFrames
100.000000	100.000000	4	53	mm	100.000000	449	599
Frame#	Time	RPSI			LPSI			L3			STRN			T10			C7			CLAV			RBAK			LBAK			LSHO			LUPA			LAEL			LAOL			LWTS			LWPS			LFRA			LIFD			LHPS			LHTS			RSHO			RUPA			RAEL			RAOL			RWTS			RWPS			RFRA			RIFD			RHTS			RHPS			RBHD			LFHD			RFHD			LBHD			LHIP			RHIP			RASI			LASI			LKNE			LTHI			LANK			LTIP			LTOE			LMT1			LMT5			LHEE			RKNE			RTHI			RANK			RTIP			RTOE			RMT1			RMT5			RHEE			
		X1	Y1	Z1	X2	Y2	Z2	X3	Y3	Z3	X4	Y4	Z4	X5	Y5	Z5	X6	Y6	Z6	X7	Y7	Z7	X8	Y8	Z8	X9	Y9	Z9	X10	Y10	Z10	X11	Y11	Z11	X12	Y12	Z12	X13	Y13	Z13	X14	Y14	Z14	X15	Y15	Z15	X16	Y16	Z16	X17	Y17	Z17	X18	Y18	Z18	X19	Y19	Z19	X20	Y20	Z20	X21	Y21	Z21	X22	Y22	Z22	X23	Y23	Z23	X24	Y24	Z24	X25	Y25	Z25	X26	Y26	Z26	X27	Y27	Z27	X28	Y28	Z28	X29	Y29	Z29	X30	Y30	Z30	X31	Y31	Z31	X32	Y32	Z32	X33	Y33	Z33	X34	Y34	Z34	X35	Y35	Z35	X36	Y36	Z36	X37	Y37	Z37	X38	Y38	Z38	X39	Y39	Z39	X40	Y40	Z40	X41	Y41	Z41	X42	Y42	Z42	X43	Y43	Z43	X44	Y44	Z44	X45	Y45	Z45	X46	Y46	Z46	X47	Y47	Z47	X48	Y48	Z48	X49	Y49	Z49	X50	Y50	Z50	X51	Y51	Z51	X52	Y52	Z52	X53	Y53	Z53	

450	4.49	-5.685154438018799	922.2796020507812	-544.64892578125	-26.45622062683105	905.0429077148438	-406.0235595703125	-24.39313697814941	1010.314270019531	-504.8621826171875	-305.5298461914062	1197.567260742188	-530.6148681640625	-18.26977157592773	1134.726318359375	-512.518310546875	-92.48881530761719	1401.590942382812	-543.5200805664062	-270.9617614746094	1311.407958984375	-528.1104125976562	-22.58472061157227	1277.451782226562	-627.4515991210938	-56.04401397705078	1358.721557617188	-445.1781311035156	-156.8918151855469	1377.122192382812	-364.1434020996094	-127.5904235839844	1263.376220703125	-264.9872131347656	-118.7639617919922	1050.530151367188	-222.0594024658203	-54.12383651733398	1038.162475585938	-301.8367309570312	-186.5281066894531	839.478515625	-239.4993133544922	-128.8511657714844	833.3980102539062	-192.4702453613281	-129.0853424072266	962.5098266601562	-204.1499328613281	-168.0083770751953	680.7503051757812	-218.4462280273438	-124.1151809692383	756.3223266601562	-187.6639862060547	-188.2152099609375	753.5005493164062	-222.8878936767578	-149.7801818847656	1363.37353515625	-700.5584716796875	-124.935302734375	1306.294067382812	-775.1428833007812	-118.8800506591797	1030.166748046875	-859.7366333007812	-75.201904296875	1001.862182617188	-816.2139282226562	-259.7765808105469	846.8947143554688	-848.0276489257812	-189.8816528320312	822.9710083007812	-896.9111328125	-129.7036590576172	973.9051513671875	-875.5097045898438	-279.528564453125	687.25048828125	-874.2711181640625	-292.6614074707031	757.7192993164062	-872.14892578125	-223.6607360839844	742.80322265625	-906.6712646484375	-253.4049377441406	1590.407836914062	-628.7068481445312	-349.4463806152344	1564.119750976562	-448.1208801269531	-377.2517700195312	1562.141357421875	-575.9347534179688	-202.1443023681641	1602.968383789062	-459.3685607910156	-190.5923919677734	820.9437866210938	-310.95263671875	-83.84256744384766	826.786865234375	-707.5877075195312	-203.7284240722656	850.821533203125	-663.2532958984375	-259.2825622558594	859.2437133789062	-416.1689147949219	-384.1769714355469	456.9060974121094	-330.7826538085938	-335.1285095214844	601.36669921875	-324.0077514648438	-524.5537109375	61.53941345214844	-309.1065979003906	-448.2333374023438	323.314697265625	-306.4244689941406	-730.5501708984375	157.5823974609375	-379.0440979003906	-664.1424560546875	125.2312774658203	-408.606201171875	-657.9334106445312	129.2866516113281	-298.315185546875	-484.1363220214844	45.60540008544922	-374.0476989746094	-15.35068225860596	446.1023254394531	-676.2539672851562	-101.0676956176758	690.7493286132812	-717.0966186523438	180.7849426269531	51.86291885375977	-666.01953125	34.32108688354492	305.867431640625	-681.1317749023438	-27.76064491271973	41.67448425292969	-597.840576171875	36.45053863525391	50.30783843994141	-570.8692016601562	47.24757766723633	40.79001998901367	-680.2177124023438	248.1269378662109	58.69008255004883	-624.2166748046875	
451	4.5	-15.48183250427246	920.4290771484375	-541.431396484375	-36.9319953918457	902.4645385742188	-403.0861511230469	-34.37657928466797	1007.715942382812	-501.5215759277344	-315.3154907226562	1195.4638671875	-528.134033203125	-28.13662528991699	1132.170654296875	-508.72607421875	-101.8498153686523	1399.223999023438	-539.4591064453125	-280.6069946289062	1309.216796875	-525.11181640625	-31.51164436340332	1275.1337890625	-623.2110595703125	-65.95146942138672	1356.056884765625	-441.1165466308594	-167.1092376708984	1374.434692382812	-360.4138488769531	-137.9062805175781	1260.345458984375	-261.5728454589844	-128.2760467529297	1047.556396484375	-219.3836364746094	-63.64602279663086	1035.887329101562	-299.3789367675781	-192.7541198730469	835.3753662109375	-236.6030426025391	-134.8275146484375	830.3190307617188	-189.7402954101562	-137.2514343261719	959.397705078125	-201.4714508056641	-171.3855895996094	677.0216064453125	-215.4093017578125	-128.7924499511719	753.3802490234375	-184.7991485595703	-192.9110260009766	749.423583984375	-219.9126892089844	-158.2547454833984	1361.224731445312	-696.8389892578125	-132.9654235839844	1303.944580078125	-771.2074584960938	-127.3319702148438	1027.806884765625	-855.6163940429688	-84.13198852539062	999.1377563476562	-811.8428344726562	-270.3342590332031	846.2590942382812	-844.2590942382812	-200.5347442626953	821.37841796875	-892.754638671875	-138.6958160400391	971.5880126953125	-871.3515014648438	-291.1899719238281	686.441162109375	-870.2979125976562	-304.4004516601562	757.5877075195312	-868.4277954101562	-235.3844299316406	741.6196899414062	-902.6634521484375	-262.1029052734375	1588.33740234375	-625.270263671875	-358.8709106445312	1562.048217773438	-445.0335083007812	-386.1943054199219	1560.135131835938	-572.927490234375	-211.4781646728516	1600.759155273438	-455.7437438964844	-201.1378173828125	818.2300415039062	-309.0856628417969	-92.37474822998047	825.4542846679688	-705.0961303710938	-212.7762603759766	848.8040771484375	-661.328125	-269.7059020996094	856.8687744140625	-414.3961791992188	-395.9702758789062	454.6851501464844	-329.8126831054688	-346.3999938964844	599.3098754882812	-322.4901733398438	-532.7156982421875	58.22851943969727	-308.7872009277344	-459.2700805664062	320.2738647460938	-305.8863525390625	-739.9337158203125	153.2384490966797	-376.6496887207031	-673.7432861328125	120.9630737304688	-406.9232788085938	-665.9072265625	125.9352722167969	-296.726806640625	-492.9668884277344	42.30571746826172	-374.1222534179688	-21.04089546203613	445.6749877929688	-675.5848999023438	-108.6908340454102	689.5364379882812	-715.4296875	180.3302459716797	53.30902099609375	-665.8714599609375	30.37376594543457	305.8803405761719	-680.5598754882812	-27.77437400817871	41.68515396118164	-597.7879638671875	36.11199188232422	50.35992431640625	-570.9293212890625	47.27069854736328	40.83830642700195	-680.1759643554688	247.6463317871094	61.60076141357422	-624.0357666015625	
452	4.51	-25.57528686523438	918.61669921875	-538.0950927734375	-47.67218780517578	899.8696899414062	-400.0313720703125	-44.59359741210938	1005.15673828125	-498.1128540039062	-325.3299865722656	1193.428100585938	-525.4315795898438	-38.28481674194336	1129.658325195312	-504.8323364257812	-111.4191665649414	1396.890869140625	-535.1907348632812	-290.4703979492188	1307.091674804688	-521.89794921875	-40.6884651184082	1272.889404296875	-618.8130493164062	-76.049072265625	1353.414794921875	-436.8690795898438	-177.5210113525391	1371.802856445312	-356.4903259277344	-148.4190979003906	1257.36962890625	-257.9793090820312	-138.0110168457031	1044.633056640625	-216.5741271972656	-73.42559814453125	1033.674926757812	-296.7991027832031	-199.2621154785156	831.3887329101562	-233.6022186279297	-141.0863037109375	827.3396606445312	-186.9212646484375	-145.6790313720703	956.36572265625	-198.6703491210938	-175.0397186279297	673.4465942382812	-212.306396484375	-133.7444610595703	750.564697265625	-181.8752593994141	-197.8840637207031	745.4705200195312	-216.8542938232422	-167.0049438476562	1359.181396484375	-692.8941650390625	-141.2683868408203	1301.735961914062	-767.0606689453125	-135.7834167480469	1025.577514648438	-851.2714233398438	-93.04307556152344	996.6130981445312	-807.21728515625	-280.6202087402344	845.5789794921875	-840.3129272460938	-210.8745727539062	819.83642578125	-888.3724975585938	-147.6066284179688	969.3930053710938	-866.9616088867188	-302.3803405761719	685.6427001953125	-866.1192016601562	-315.7026977539062	757.3604125976562	-864.5410766601562	-246.6814727783203	740.4614868164062	-898.4302978515625	-270.8414001464844	1586.350830078125	-621.64404296875	-368.4320373535156	1560.114990234375	-441.7541198730469	-395.2413635253906	1558.2841796875	-569.73095703125	-220.926025390625	1598.592529296875	-451.885498046875	-211.9515686035156	815.3577270507812	-307.1090393066406	-101.1568756103516	824.162109375	-702.4812622070312	-222.2119445800781	846.763427734375	-659.3272705078125	-280.4000854492188	854.3978881835938	-412.4935302734375	-408.1102294921875	452.3017883300781	-328.8111267089844	-357.9197082519531	597.0196533203125	-320.78564453125	-539.6188354492188	54.53462600708008	-308.2610168457031	-470.2993774414062	316.8755187988281	-305.3565673828125	-748.4105834960938	147.4679412841797	-374.3984680175781	-682.2783813476562	115.5171432495117	-405.275146484375	-672.94970703125	121.4665756225586	-295.1907958984375	-500.2790832519531	38.93614196777344	-373.8998413085938	-26.91848754882812	445.3687438964844	-674.8856811523438	-116.5242080688477	688.4036254882812	-713.6851806640625	179.7195739746094	54.94186782836914	-665.6663208007812	26.30062294006348	306.0652160644531	-679.967529296875	-27.78667640686035	41.69135665893555	-597.75830078125	35.73898315429688	50.44004058837891	-570.9896240234375	47.27657318115234	40.9049072265625	-680.1115112304688	247.0546112060547	64.84146881103516	-623.8377075195312	
453	4.52	-35.97079849243164	916.8391723632812	-534.6290893554688	-58.68702697753906	897.2662963867188	-396.8339538574219	-55.06064987182617	1002.632263183594	-494.6250305175781	-335.5857849121094	1191.458374023438	-522.5081787109375	-48.72619247436523	1127.181640625	-500.832275390625	-121.1916656494141	1394.59619140625	-530.7161865234375	-300.5492248535156	1305.033935546875	-518.4746704101562	-50.12021636962891	1270.716796875	-614.2562255859375	-86.34248352050781	1350.790649414062	-432.43798828125	-188.1241149902344	1369.219360351562	-352.3721008300781	-159.1162872314453	1254.444946289062	-254.2064514160156	-147.9508514404297	1041.757080078125	-213.6131591796875	-83.44755554199219	1031.51220703125	-294.0746459960938	-206.0823822021484	827.5250244140625	-230.4938354492188	-147.6620025634766	824.450927734375	-184.0086212158203	-154.370361328125	953.4096069335938	-195.7339630126953	-179.0007781982422	670.0223999023438	-209.1798858642578	-139.0088806152344	747.857421875	-178.9086303710938	-203.1730499267578	741.635498046875	-213.7255249023438	-176.0314636230469	1357.243774414062	-688.726318359375	-149.8482208251953	1299.674438476562	-762.7109375	-144.2403564453125	1023.483581542969	-846.7240600585938	-101.9345092773438	994.2939453125	-802.3651733398438	-290.6386413574219	844.8395385742188	-836.1884155273438	-220.9095153808594	818.3344116210938	-883.7884521484375	-156.4372863769531	967.32470703125	-862.3630981445312	-313.1062316894531	684.8128662109375	-861.7246704101562	-326.5670166015625	757.010009765625	-860.4802856445312	-257.5465698242188	739.3069458007812	-893.974609375	-279.6167297363281	1584.467651367188	-617.8300170898438	-378.1302490234375	1558.328979492188	-438.2792663574219	-404.3985900878906	1556.595947265625	-566.3436889648438	-230.4952392578125	1596.48779296875	-447.7960815429688	-223.0931854248047	812.3726806640625	-304.9775695800781	-110.2103652954102	822.9019775390625	-699.7545776367188	-232.0211029052734	844.7156982421875	-657.2551879882812	-291.3668823242188	851.828125	-410.4694213867188	-420.4834594726562	449.7750854492188	-327.7553405761719	-369.6548461914062	594.4985961914062	-318.9287719726562	-545.4583740234375	50.71512222290039	-307.5942077636719	-481.290283203125	313.2156677246094	-304.831298828125	-756.2225952148438	140.3899383544922	-372.3291015625	-689.9627075195312	109.1093215942383	-403.7001647949219	-679.325927734375	115.9217300415039	-293.7474975585938	-506.28564453125	35.87149047851562	-373.4834594726562	-33.02219772338867	445.1586608886719	-674.1245727539062	-124.5774383544922	687.3551025390625	-711.861083984375	178.9781494140625	56.76487731933594	-665.4320678710938	22.09091186523438	306.427001953125	-679.3493041992188	-27.80452919006348	41.69704437255859	-597.7432861328125	35.33047866821289	50.56206893920898	-571.0529174804688	47.25413513183594	40.99043273925781	-680.0276489257812	246.3307952880859	68.42110443115234	-623.6484985351562	
